<svg width="35" height="36" viewBox="0 0 35 36" fill="none" xmlns="http://www.w3.org/2000/svg">
<path d="M17.5 18.3439C18.7031 18.3439 19.7334 17.9844 20.5909 17.2653C21.447 16.5475 21.875 15.6841 21.875 14.6752C21.875 13.6662 21.447 12.8022 20.5909 12.0832C19.7334 11.3653 18.7031 11.0064 17.5 11.0064C16.2969 11.0064 15.2673 11.3653 14.4113 12.0832C13.5538 12.8022 13.125 13.6662 13.125 14.6752C13.125 15.6841 13.5538 16.5475 14.4113 17.2653C15.2673 17.9844 16.2969 18.3439 17.5 18.3439ZM17.5 36C17.2083 36 16.9167 35.9541 16.625 35.8624C16.3333 35.7707 16.0781 35.6484 15.8594 35.4955C10.5365 31.5516 6.5625 27.8908 3.9375 24.513C1.3125 21.1341 0 17.9771 0 15.042C0 10.4561 1.75948 6.80255 5.27844 4.08153C8.79594 1.36051 12.8698 0 17.5 0C22.1302 0 26.2041 1.36051 29.7216 4.08153C33.2405 6.80255 35 10.4561 35 15.042C35 17.9771 33.6875 21.1341 31.0625 24.513C28.4375 27.8908 24.4635 31.5516 19.1406 35.4955C18.9219 35.6484 18.6667 35.7707 18.375 35.8624C18.0833 35.9541 17.7917 36 17.5 36Z" fill="#42FE6B"/>
</svg>
