<svg width="300" height="60" viewBox="0 0 300 60" fill="none" xmlns="http://www.w3.org/2000/svg">
<rect width="300" height="60" rx="30" fill="#E4E4E4"/>
<path d="M283.674 38.7531L279 34.0793C278.789 33.8683 278.503 33.7512 278.203 33.7512H277.439C278.733 32.0963 279.501 30.0149 279.501 27.7507C279.501 22.3644 275.137 18 269.751 18C264.364 18 260 22.3644 260 27.7507C260 33.137 264.364 37.5014 269.751 37.5014C272.015 37.5014 274.096 36.7326 275.751 35.4388V36.2029C275.751 36.5029 275.868 36.7889 276.079 36.9998L280.753 41.6736C281.194 42.1143 281.906 42.1143 282.342 41.6736L283.669 40.3469C284.11 39.9063 284.11 39.1937 283.674 38.7531ZM269.751 33.7512C266.436 33.7512 263.75 31.0697 263.75 27.7507C263.75 24.4364 266.432 21.7503 269.751 21.7503C273.065 21.7503 275.751 24.4317 275.751 27.7507C275.751 31.065 273.07 33.7512 269.751 33.7512Z" fill="#333333"/>
</svg>
